<svg xmlns="http://www.w3.org/2000/svg" xmlns:xlink="http://www.w3.org/1999/xlink" viewBox="0 0 70.69 45.18"><defs><style>.cls-1{fill:#231f20;}.cls-2{fill:none;stroke:#231f20;stroke-miterlimit:10;stroke-width:0.5px;}</style></defs><g id="Layer_2" data-name="Layer 2"><g id="Layer_14" data-name="Layer 14"><image width="320" height="240" transform="translate(51.03 15.45) scale(0.06 0.06)" xlink:href="../../../Test/SVM-Image-Classification/images/EOSPINOPHIL/_0_207.jpeg"/><image width="320" height="240" transform="translate(51.03) scale(0.06 0.06)" xlink:href="../../../Test/SVM-Image-Classification/images/EOSPINOPHIL/_0_651.jpeg"/><image width="320" height="240" transform="translate(51.03 30.9) scale(0.06 0.06)" xlink:href="../../../Test/SVM-Image-Classification/images/EOSPINOPHIL/_0_797.jpeg"/><image width="640" height="480" transform="translate(0 10.75) scale(0.04 0.04)" xlink:href="../../../Sci-Com1/Data/dataset-master/JPEGImages/BloodImage_00000.jpg"/><line class="cls-1" x1="32.33" y1="14.3" x2="48.87" y2="6.25"/><line class="cls-2" x1="32.33" y1="14.29" x2="47.25" y2="7.04"/><polygon class="cls-1" points="47.47 8.32 48.87 6.25 46.38 6.08 47.47 8.32"/><line class="cls-1" x1="32.84" y1="25.59" x2="48.87" y2="39.58"/><line class="cls-2" x1="32.84" y1="25.59" x2="47.51" y2="38.4"/><polygon class="cls-1" points="46.42 39.1 48.87 39.58 48.06 37.22 46.42 39.1"/><line class="cls-1" x1="32.59" y1="20.22" x2="47.82" y2="22.59"/><line class="cls-2" x1="32.59" y1="20.22" x2="46.05" y2="22.31"/><polygon class="cls-1" points="45.5 23.49 47.82 22.59 45.88 21.03 45.5 23.49"/></g></g></svg>